HIERARCHY
ROOT Hips
{
	OFFSET -3.958830 18.904000 13.208200
	CHANNELS 6 Xposition Yposition Zposition Zrotation Yrotation Xrotation 
	JOINT LHipJoint
	{
		OFFSET 0.000000 0.000000 0.000000
		CHANNELS 3 Zrotation Yrotation Xrotation
		JOINT LeftUpLeg
		{
			OFFSET 1.800000 -1.400000 0.085000
			CHANNELS 3 Zrotation Yrotation Xrotation
			JOINT LeftLeg
			{
				OFFSET 2.215000 -6.000000 0.000000
				CHANNELS 3 Zrotation Yrotation Xrotation
				JOINT LeftFoot
				{
					OFFSET 2.500000 -6.900000 0.000000
					CHANNELS 3 Zrotation Yrotation Xrotation
					JOINT LeftToeBase
					{
						OFFSET 0.200000 -0.500000 1.950000
						CHANNELS 3 Zrotation Yrotation Xrotation
						End Site
						{
							OFFSET 0.000000 0.000000 0.000000
						}
					}
				}
			}
		}
	}
	JOINT RHipJoint
	{
		OFFSET 0.000000 0.000000 0.000000
		CHANNELS 3 Zrotation Yrotation Xrotation
		JOINT RightUpLeg
		{
			OFFSET -1.800000 -1.400000 0.085000
			CHANNELS 3 Zrotation Yrotation Xrotation
			JOINT RightLeg
			{
				OFFSET -2.215000 -6.000000 0.000000
				CHANNELS 3 Zrotation Yrotation Xrotation
				JOINT RightFoot
				{
					OFFSET -2.500000 -6.900000 0.000000
					CHANNELS 3 Zrotation Yrotation Xrotation
					JOINT RightToeBase
					{
						OFFSET -0.200000 -0.500000 1.950000
						CHANNELS 3 Zrotation Yrotation Xrotation
						End Site
						{
							OFFSET 0.000000 0.000000 0.000000
						}
					}
				}
			}
		}
	}
	JOINT LowerBack
	{
		OFFSET 0.000000 0.000000 0.000000
		CHANNELS 3 Zrotation Yrotation Xrotation
		JOINT Spine
		{
			OFFSET -0.087000 1.940000 -0.288900
			CHANNELS 3 Zrotation Yrotation Xrotation
			JOINT Spine1
			{
				OFFSET 0.000000 1.950000 0.060000
				CHANNELS 3 Zrotation Yrotation Xrotation
				JOINT Neck
				{
					OFFSET 0.000000 0.000000 0.000000
					CHANNELS 3 Zrotation Yrotation Xrotation
					JOINT Neck1
					{
						OFFSET 0.000000 1.600000 0.340000
						CHANNELS 3 Zrotation Yrotation Xrotation
						JOINT Head
						{
							OFFSET 0.000000 1.667000 -0.240000
							CHANNELS 3 Zrotation Yrotation Xrotation
							End Site
							{
								OFFSET 0.000000 0.000000 0.000000
							}
						}
					}
				}
				JOINT LeftShoulder
				{
					OFFSET 0.000000 0.000000 0.000000
					CHANNELS 3 Zrotation Yrotation Xrotation
					JOINT LeftArm
					{
						OFFSET 2.700000 1.550000 -0.730000
						CHANNELS 3 Zrotation Yrotation Xrotation
						JOINT LeftForeArm
						{
							OFFSET 5.450000 0.000000 0.000000
							CHANNELS 3 Zrotation Yrotation Xrotation
							JOINT LeftHand
							{
								OFFSET 3.450000 0.000000 0.000000
								CHANNELS 3 Zrotation Yrotation Xrotation
								JOINT LeftHandIndex1
								{
									OFFSET 0.750000 0.000000 0.000000
									CHANNELS 3 Zrotation Yrotation Xrotation
									End Site
									{
										OFFSET 0.000000 0.000000 0.000000
									}
								}
							}
						}
					}
				}
				JOINT RightShoulder
				{
					OFFSET 0.000000 0.000000 0.000000
					CHANNELS 3 Zrotation Yrotation Xrotation
					JOINT RightArm
					{
						OFFSET -2.700000 1.550000 -0.730000
						CHANNELS 3 Zrotation Yrotation Xrotation
						JOINT RightForeArm
						{
							OFFSET -5.450000 0.000000 0.000000
							CHANNELS 3 Zrotation Yrotation Xrotation
							JOINT RightHand
							{
								OFFSET -3.450000 0.000000 0.000000
								CHANNELS 3 Zrotation Yrotation Xrotation
								JOINT RightHandIndex1
								{
									OFFSET -0.750000 0.000000 0.000000
									CHANNELS 3 Zrotation Yrotation Xrotation
									End Site
									{
										OFFSET 0.000000 0.000000 0.000000
									}
								}
							}
						}
					}
				}
			}
		}
	}
}
MOTION
Frames: 6
Frame Time: 0.016667
-2.078980 16.973300 -0.960000 -4.644588 -2.461030 -13.255435 -14.780883 14.236012 2.123246 11.281688 -0.256042 -18.066249 9.494426 4.235670 36.021548 -0.563459 6.171074 2.517962 0.465710 -0.037080 0.209180 18.463099 -11.319877 3.192407 0.315654 5.991397 -14.819233 3.135506 -7.545813 39.952142 -0.877849 -5.858722 2.663557 -0.027700 0.454250 0.200360 -4.310698 -1.854174 -7.423850 9.557221 -7.356515 32.195059 -17.263618 -0.113436 14.302323 3.830702 -9.593908 -15.565206 -26.536320 8.114483 40.538173 9.077860 -4.081660 -19.828440 7.329875 -30.242914 4.486893 9.115422 -34.529185 -7.219220 103.902742 -45.276088 -55.481310 -3.945323 1.893152 0.989600 0.021070 -0.022290 0.317590 -14.699137 36.168373 7.745211 -29.539646 15.381417 -10.581292 -21.810327 7.592987 -1.455764 2.203260 -1.129575 -0.357510 0.553800 0.124770 -0.252500 
-2.086420 16.969780 -0.975680 -4.907816 -3.368011 -12.962941 -14.774825 14.191560 2.160561 12.344051 -0.076693 -18.578174 8.195914 4.932405 36.200496 -0.499600 6.228630 2.481283 0.461660 -0.041070 0.226180 18.471735 -11.282590 3.227962 0.872867 6.172061 -14.883537 2.935916 -7.345254 39.708223 -0.889851 -5.744415 2.708863 -0.068570 0.411130 0.199220 -4.309232 -1.809902 -7.482201 9.595801 -7.492188 32.693276 -17.418900 -0.212886 13.236718 4.216937 -9.647525 -16.078218 -27.230343 8.891015 41.669464 9.418980 -3.574270 -20.517360 6.683798 -30.336588 4.986736 8.679438 -33.474012 -6.636443 106.764508 -46.024123 -58.900919 -3.882982 1.873322 1.008270 -0.018620 0.017660 0.312040 -14.672513 36.642903 7.589398 -29.832110 15.840613 -10.727256 -21.490031 8.426324 -1.371400 2.225134 -1.103192 -0.327640 0.528460 0.102880 -0.249910 
-2.100470 16.955830 -0.979000 -5.116357 -4.273196 -12.305066 -14.756726 14.053020 2.245967 13.713990 0.046270 -19.493548 6.312855 5.953483 36.748135 -0.462429 6.434835 2.376521 0.437790 -0.073140 0.211760 18.503896 -11.228797 3.257129 1.074942 6.483669 -15.405087 3.240772 -7.402322 39.552816 -0.894907 -5.695550 2.722104 -0.104850 0.383560 0.204280 -4.365053 -1.661175 -7.573485 10.194697 -7.482715 32.392797 -18.076910 -0.097911 12.154383 4.589452 -9.301585 -16.790806 -27.530919 9.772074 43.917597 9.811490 -3.328460 -19.759840 6.324845 -30.714585 5.374156 8.456750 -33.086277 -6.318159 106.139818 -46.550871 -58.463222 -3.842825 1.857571 1.041780 -0.039510 0.041920 0.303830 -14.975573 37.070075 7.497308 -29.403420 16.111355 -10.428187 -20.783948 9.583327 -1.206576 2.211380 -1.088878 -0.323060 0.497980 0.106630 -0.257880 
-2.129040 16.932730 -0.986240 -4.888878 -4.550175 -11.748583 -14.817125 14.032378 2.359731 14.536880 0.137467 -20.442659 5.098034 6.684490 37.128007 -0.425353 6.603764 2.284375 0.436890 -0.084750 0.240190 18.456003 -11.076909 3.270470 0.910961 6.855799 -16.130075 3.643186 -7.568890 39.954017 -0.897582 -5.726285 2.707944 -0.130040 0.352550 0.215000 -4.211354 -1.887235 -7.676255 9.320950 -7.023586 32.076807 -17.539182 0.299294 11.702380 4.898262 -8.895185 -17.045329 -27.032319 9.924078 45.458239 8.958730 -2.994060 -19.307300 6.422056 -30.550958 5.546372 7.594610 -32.803380 -5.601297 107.331869 -47.519253 -60.722046 -3.829328 1.836374 1.040080 -0.045210 0.051840 0.277930 -15.622843 37.149304 7.231969 -29.145830 16.682462 -10.286575 -20.567252 8.656197 -1.114998 2.242331 -1.063768 -0.299020 0.465260 0.107060 -0.270760 
-2.150930 16.910510 -0.992820 -5.105114 -4.478169 -11.667058 -14.816027 13.950108 2.362283 15.243031 0.172049 -20.785648 4.986704 6.825878 37.417968 -0.440511 6.701689 2.252566 0.454050 -0.055140 0.247380 18.481455 -11.037327 3.282477 1.354417 6.957425 -16.242271 3.688501 -7.623482 40.199006 -0.905345 -5.771389 2.704260 -0.094560 0.368780 0.190400 -4.256418 -1.811662 -7.682548 9.756253 -7.277328 31.952404 -17.806511 0.211988 12.202508 4.820927 -8.977163 -16.633280 -26.830703 9.675172 44.620045 8.794770 -2.996480 -19.578220 7.201340 -30.338920 5.228700 7.642934 -33.005266 -6.213871 105.050845 -47.238884 -58.350359 -3.843029 1.832384 1.027150 -0.034340 0.035270 0.289210 -16.350719 36.708701 6.951065 -29.628002 16.516838 -10.232425 -20.419157 8.962417 -1.158410 2.216463 -1.073361 -0.318540 0.502660 0.098750 -0.271260 
-2.171270 16.895350 -0.991010 -5.245158 -4.155916 -11.938508 -14.814231 13.918503 2.346687 15.764420 0.206056 -20.695229 5.131055 6.860492 37.838851 -0.432794 6.775405 2.213814 0.462450 -0.035240 0.265520 18.492965 -11.032715 3.292293 1.712937 6.964390 -16.027933 3.670603 -7.712796 40.566404 -0.935209 -5.829959 2.679929 -0.085530 0.345440 0.182080 -4.280980 -1.748782 -7.690903 9.926853 -7.560900 32.192760 -18.033274 0.082072 12.464845 4.972378 -8.836491 -16.515655 -26.644400 9.764196 45.329916 8.125830 -2.650120 -20.318800 7.459197 -30.312665 5.137508 8.007917 -32.798737 -6.521383 104.313235 -47.455721 -57.788440 -3.830844 1.818407 1.034510 -0.047430 0.051850 0.279140 -16.933346 36.507079 6.731101 -29.782246 16.543847 -10.195211 -20.172378 8.669723 -1.113395 2.226550 -1.054655 -0.316060 0.507620 0.092780 -0.277380 
